# xmcd
# 
# Track frame offsets:
#     150
#     25654
#     58877
#     92457
#     142232
#     165013
#     217560
# 
# Disc length: 3459
# 
# Revision: 1
# Processed by: cddbd v1.5.2PL0 Copyright (c) Steve Scherf et al.
# Submitted via: fre:ac v1.0.17
# 
DISCID=4e0d8107
DTITLE=Ozrics - waterfall cities
DYEAR=0
DGENRE=
TTITLE0=Aura Borealis
TTITLE1=Coily
TTITLE2=Xingu
TTITLE3=Waterfall City
TTITLE4=Ch'ai
TTITLE5=Spiralmind
TTITLE6=Sultana Detrii
EXTD=
EXTT0=
EXTT1=
EXTT2=
EXTT3=
EXTT4=
EXTT5=
EXTT6=
PLAYORDER=
